<svg xmlns="http://www.w3.org/2000/svg" viewBox="0 0 231.3 195.41"><defs><style>.cls-1{fill:#1e1e1c;}</style></defs><g id="Layer_2" data-name="Layer 2"><g id="Layer_1-2" data-name="Layer 1"><path class="cls-1" d="M39.77,0a59,59,0,0,1,4.59,6.5,60.18,60.18,0,0,1,3.71,7.07A57.91,57.91,0,0,1,52.39,29v-.14l2.37,6.51-.06-.12c2.23,3.91,4.52,7.79,7,11.56,1.22,1.88,2.47,3.74,3.8,5.53a13.76,13.76,0,0,0,2.1,2.41,11.36,11.36,0,0,0,2.6,1.74A17.21,17.21,0,0,0,76.34,58,61.65,61.65,0,0,0,83,58c4.48-.11,9-.37,13.46-.75s9-.88,13.45-1.41,9-1,13.46-1.49c9-1,17.92-2.14,26.88-3.26h-.06A9.8,9.8,0,0,1,155.4,51a12,12,0,0,1,4.6,2.39l-.11-.07a72.6,72.6,0,0,1,19.25,13c5.55,5.4,11,10.79,16.5,16.2L212.1,98.76l16.34,16.34-.16-.13a6.64,6.64,0,0,1,2.84,4.09,6.39,6.39,0,0,1,.09,2.54,5.2,5.2,0,0,1-3.29,3.93,4.25,4.25,0,0,1-2.73,0,4.88,4.88,0,0,1-2.15-1.48l-1.48-1.59L209.8,109.74,198.1,97,186.48,84.07l.14-.14,12.16,12.38,12.08,12.45,12,12.51,1.5,1.57a3.11,3.11,0,0,0,1.38.93,2.58,2.58,0,0,0,2.84-1,3.77,3.77,0,0,0,.57-3.25,4.62,4.62,0,0,0-2-2.84l-.09-.06-.07-.07-16.39-16.3L194.3,83.87,178.05,67.46a73.51,73.51,0,0,0-18.59-13.21h-.11A10.8,10.8,0,0,0,155.16,52a8.83,8.83,0,0,0-4.73,0h-.06c-9,1-17.94,2-26.89,3.15-4.48.57-9,1.1-13.43,1.72s-8.94,1.32-13.44,1.81-9,.92-13.54,1.1a65.22,65.22,0,0,1-6.85,0,18.54,18.54,0,0,1-6.87-1.63A13.23,13.23,0,0,1,64,53.33c-1.34-1.85-2.59-3.74-3.8-5.66-2.4-3.84-4.66-7.76-6.86-11.67v-.12l-2.23-6.56v-.14A56.87,56.87,0,0,0,47.29,14,64.41,64.41,0,0,0,39.61.12Z"/><path class="cls-1" d="M34.43,0c2.37,4.1,4.49,8.32,6.5,12.58.49,1.09,1,2.09,1.48,3.25l.69,1.7a14,14,0,0,1,.46,1.8,21.9,21.9,0,0,1,.1,7.27v.31l-.29.1a13.4,13.4,0,0,0-1.52.48l-1.48.67c-1,.46-1.94.92-3,1.38a6,6,0,0,1-1.67.37c-.58,0-1.11,0-1.66.05-1.09,0-2.18.09-3.28.13-2.18.08-4.37.23-6.56.3l-3.28.11H19.33a4.69,4.69,0,0,0-.75,0A.65.65,0,0,0,18,31a.34.34,0,0,0,0,.2,2.5,2.5,0,0,0,.51,1,4.75,4.75,0,0,0,2.24,1.37c2.08.64,4.15,1.33,6.22,2Q33.1,37.63,39.22,40h-.08a2.11,2.11,0,0,0,1,0,3.17,3.17,0,0,0,1-.6,8.93,8.93,0,0,0,.87-.87,5.84,5.84,0,0,0,.71-1h.2a4.86,4.86,0,0,1-.56,1.2,11.7,11.7,0,0,1-.78,1.07,3.87,3.87,0,0,1-1.08.89A2.61,2.61,0,0,1,39,41h-.08q-6.36-1.62-12.63-3.5c-2.09-.62-4.18-1.26-6.25-2a6.33,6.33,0,0,1-3.19-2.13,5.85,5.85,0,0,1-.53-.86A3.41,3.41,0,0,1,16,31.38,2.28,2.28,0,0,1,16.25,30a2.7,2.7,0,0,1,.91-.93,2.51,2.51,0,0,1,1.19-.36,6.46,6.46,0,0,1,.88,0h1.69l3.26.11c2.18.07,4.36.22,6.54.3,1.09,0,2.18.11,3.27.13.54,0,1.11.05,1.62,0A5.56,5.56,0,0,0,37.13,29c.95-.41,1.94-.92,2.92-1.43l1.46-.77a14,14,0,0,1,1.54-.67l-.34.41a22,22,0,0,0-.78-6.8c-.14-.54-.31-1.08-.5-1.61l-.67-1.56c-.42-1-.93-2.16-1.38-3.23C37.51,9,35.75,4.6,34.24.1Z"/><path class="cls-1" d="M43.39,39.14c.38,1.42.74,2.83,1.08,4.26l.46,2.18a16.74,16.74,0,0,1,.26,2.23,31.76,31.76,0,0,1-.06,4.47c-.06.74-.14,1.48-.24,2.23a5.89,5.89,0,0,1-.19,1.1c-.07.33-.11.68-.15,1a27.56,27.56,0,0,0-.19,4.26A19.12,19.12,0,0,0,44.54,63a10.81,10.81,0,0,0,.56,2c1,2.69,2.09,5.43,3.18,8.11.55,1.34,1.09,2.7,1.74,3.94a14.29,14.29,0,0,0,2.6,3.29A21,21,0,0,0,59.77,85c5.42,2.12,11.38,2.43,17.17,2.36,2.92,0,5.83-.25,8.74-.43a71.32,71.32,0,0,0,8.62-1,40.07,40.07,0,0,0,4.2-1,35.37,35.37,0,0,0,4-1.33c.64-.26,1.28-.55,1.89-.87l2-1a23.85,23.85,0,0,1,4.26-1.55c11.11-3.66,22.27-7.15,33.57-10.29l.07.19c-10.9,4.33-21.94,8.32-33,12.14a23.91,23.91,0,0,0-4,1.45l-1.91,1a21,21,0,0,1-2.12.93A39.58,39.58,0,0,1,99,86.92c-1.43.35-2.91.68-4.38.92a61,61,0,0,1-8.86.67c-2.94.09-5.89.06-8.83-.06a86.61,86.61,0,0,1-8.8-.78,41.55,41.55,0,0,1-8.59-2.07,24.37,24.37,0,0,1-7.68-4.51,15.68,15.68,0,0,1-3-3.4,39.73,39.73,0,0,1-2.06-4c-1.22-2.7-2.34-5.39-3.33-8.2a12.76,12.76,0,0,1-.6-2.28,19.6,19.6,0,0,1-.16-2.3,29.46,29.46,0,0,1,.35-4.5c.06-.37.12-.75.21-1.13s.16-.7.23-1.05c.13-.69.25-1.41.34-2.12a38.71,38.71,0,0,0,.33-4.3c.06-2.86-.59-5.74-.92-8.66Z"/><path class="cls-1" d="M160.56,67.74c.09.74.16,1.48.22,2.22s.15,1.48.19,2.23l-.26-.45q3.85,1.85,7.59,3.9h.07l.09.08c1.74,1.5,3.44,3.06,5.07,4.7s3.22,3.32,4.86,4.94,3.36,3.16,5.12,4.64,3.58,2.93,5.38,4.37l.27.22V95c-.27,2.87-.67,5.72-1,8.57s-.75,5.71-1.25,8.54-1,5.67-1.58,8.49-1.2,5.64-1.94,8.43h-.2c.12-2.89.39-5.76.65-8.63s.62-5.72,1-8.57.84-5.69,1.34-8.53,1-5.67,1.57-8.49l.23.65q-2.49-2.47-5-4.91c-1.66-1.6-3.37-3.15-5.14-4.63s-3.61-2.89-5.4-4.34-3.52-3-5.2-4.56l.16.11c-2.46-1.44-4.87-2.94-7.25-4.51l-.28-.19v-.26c0-.75.12-1.49.19-2.23s.13-1.48.23-2.22Z"/><path class="cls-1" d="M149.89,66.18c2,1.66,3.93,3.44,5.8,5.25s3.68,3.66,5.41,5.6l.29.32-.06.39c-.68,4.27-1.77,8.48-2.17,12.79s-.52,8.64-1,12.93c-.23,2.15-.42,4.3-.67,6.45s-.56,4.28-.88,6.42-.7,4.27-1.12,6.39-.84,4.25-1.37,6.36h-.19c0-2.18.11-4.34.24-6.5s.3-4.32.49-6.47.43-4.3.72-6.44.63-4.28.94-6.42c.59-4.28,1.59-8.5,2.21-12.78s.66-8.63,1.05-12.93l.23.71c-1.81-1.86-3.52-3.81-5.22-5.78s-3.33-4-4.84-6.13Z"/><path class="cls-1" d="M54.47,82.48a67.63,67.63,0,0,1-2.39,8.25c-.49,1.34-1,2.69-1.53,4s-1.21,2.59-1.84,3.87v.08c-.72,1-1.44,2.12-2.08,3.22s-1.24,2.23-1.82,3.37h0c-1.46,2.4-2.78,4.88-4.29,7.23L38.25,116c-.75,1.18-1.54,2.33-2.34,3.48l-.17.24-.24.11c-2,.94-4.06,1.85-6.13,2.69s-4.16,1.63-6.3,2.33l-.09-.18c1.86-1.27,3.77-2.44,5.71-3.55s3.9-2.17,5.88-3.19l-.41.36c.78-1.17,1.56-2.33,2.39-3.45l2.47-3.4c1.64-2.27,3.47-4.4,5.18-6.62h0c.67-1.08,1.32-2.18,1.91-3.32s1.13-2.29,1.65-3.46v.07c.4-1.37.77-2.76,1.25-4.1s1-2.66,1.57-4a67.22,67.22,0,0,1,3.8-7.71Z"/><path class="cls-1" d="M63.79,86.6a88.8,88.8,0,0,1-6,10c-2.14,3.25-4.92,6-7.14,9.24s-4.08,6.63-6.19,9.89-4.21,6.55-6.54,9.66l-.34.45h-.5c-1.92,0-3.85-.15-5.77-.26h.21c-2.27.51-4.56,1-6.88,1.34l-.06-.19c2.15-1,4.32-1.81,6.51-2.62h.22c1.92-.11,3.85-.21,5.77-.25l-.84.43c2.11-3.27,4.47-6.36,6.78-9.49s5-6,7.13-9.24,3.85-6.83,6.16-10a86.62,86.62,0,0,1,7.31-9.12Z"/><path class="cls-1" d="M67.88,87.87q2.72,4.55,5.25,9.19,1.28,2.32,2.51,4.66a15.42,15.42,0,0,1,1.17,2.42l.49,1.31c.14.44.23.89.35,1.34a20.09,20.09,0,0,1-.54,10.84A26.13,26.13,0,0,1,71.87,127l-.09.11h-.11c-2.29.42-4.56.88-6.83,1.38h0a4.93,4.93,0,0,0-2.42.9,4.84,4.84,0,0,0-1,.86,1,1,0,0,0-.23.43c0,.13,0,0,.1.14a8.8,8.8,0,0,0,2.54.44,20.42,20.42,0,0,0,2.71,0c1.85-.12,3.71-.15,5.57-.19h1.4a10.81,10.81,0,0,0,1.27-.07,5.23,5.23,0,0,0,2.18-.86l-.35.44,3.28-9.17c.54-1.53,1.13-3,1.69-4.57s1.14-3,1.73-4.55l-.06.31a24.5,24.5,0,0,0,0-2.71,17.48,17.48,0,0,0-.47-2.68,20.22,20.22,0,0,0-2.14-5.07v-.06h0c-1.06-2.33-2-4.7-3.07-7s-2-4.72-3-7.1l.18-.08C76,90,77.2,92.28,78.4,94.54s2.43,4.52,3.59,6.8v-.08a19.72,19.72,0,0,1,2.6,5.41,18,18,0,0,1,.65,3,25.08,25.08,0,0,1,.12,3v.12l-.07.19c-.55,1.53-1.09,3-1.67,4.57s-1.13,3-1.73,4.55l-3.54,9.08-.11.28-.24.16a6.41,6.41,0,0,1-3,1,12.51,12.51,0,0,1-1.5,0H72.12c-1.84,0-3.68-.17-5.53-.19a22.45,22.45,0,0,1-2.84-.19c-.47-.06-.93-.14-1.4-.24a5,5,0,0,1-1.46-.48,1,1,0,0,1-.4-.42,1,1,0,0,1-.06-.6,1.71,1.71,0,0,1,.44-.76A5.38,5.38,0,0,1,62,128.8a5.8,5.8,0,0,1,2.75-1h0q3.42-.67,6.81-1.47l-.21.12a24,24,0,0,0,4.35-9.3,23.11,23.11,0,0,0,.28-10c-.1-.4-.18-.82-.3-1.22l-.41-1.17a17.11,17.11,0,0,0-1-2.38Q73.07,100,72,97.63,69.73,92.85,67.7,88Z"/><path class="cls-1" d="M186.62,129.05a28.85,28.85,0,0,1,0-4.74,34.81,34.81,0,0,1,.64-4.66c.36-1.53.91-3,1.2-4.57a29.34,29.34,0,0,0,.47-4.68,41.22,41.22,0,0,1,.3-4.71c.18-1.56.32-3.12.57-4.66a54.62,54.62,0,0,1,2.35-9.15h.2a54,54,0,0,1-.44,9.43c-.21,1.55-.5,3.1-.81,4.63s-.66,3.07-1.09,4.59a28.92,28.92,0,0,0-.91,4.61c-.18,1.56-.09,3.16-.19,4.73a33.22,33.22,0,0,1-.75,4.64,31.19,31.19,0,0,1-1.36,4.54Z"/><path class="cls-1" d="M163.47,80a49.33,49.33,0,0,1,0,6.2,54.83,54.83,0,0,1-.64,6.14c-.35,2-.9,4-1.2,6.07a52.87,52.87,0,0,0-.47,6.16c0,2.06-.11,4.13-.3,6.17s-.31,4.11-.57,6.15A92.47,92.47,0,0,1,157.94,129h-.2a94.61,94.61,0,0,1,.43-12.37c.2-2,.52-4.08.82-6.12s.66-4.06,1.08-6.08a50.61,50.61,0,0,0,.92-6.11c.17-2,.08-4.13.19-6.19a57.12,57.12,0,0,1,.75-6.12,49.12,49.12,0,0,1,1.36-6Z"/><path class="cls-1" d="M31.71,113.14c-1.13-1.24-2.19-2.54-3.21-3.88a49.47,49.47,0,0,1-2.88-4.15,80.46,80.46,0,0,1-4.63-9,197.21,197.21,0,0,1-7.3-18.73c-2.08-6.37-3.85-12.82-6-19.15-1.09-3.16-2.17-6.32-3.3-9.47L.93,39.37l1.32-.2c.06,4.45.07,8.91.06,13.37L2.26,65.91c0,4.46-.13,8.92-.24,13.37L1.58,92.65.9,91.88l8.84,1.18c1.47.18,2.94.41,4.41.62l4.42.66v.2l-4.46-.24c-1.48-.09-3-.16-4.45-.27L.74,93.4l-.68-.05v-.72L0,79.25q0-6.68.13-13.37L.46,52.51Q.62,45.84.9,39.15l.16-3.95,1.15,3.74,3,9.59c1,3.19,2.05,6.36,3.09,9.53s2.18,6.32,3.36,9.45l1.74,4.7c.57,1.58,1.16,3.14,1.79,4.68,2.49,6.19,4.77,12.47,7.3,18.62,1.3,3.06,2.55,6.15,4.11,9.06A92.75,92.75,0,0,0,31.86,113Z"/><path class="cls-1" d="M28.17,137.19q20.13-1.68,40.31-2.09c6.72-.08,13.46,0,20.18-.17s13.44-.5,20.16-.9,13.43-.78,20.15-1.07,13.44-.6,20.16-.8c13.44-.35,26.89-.57,40.36-.39v.2c-13.43,1.08-26.86,1.77-40.3,2.32-6.72.25-13.45.39-20.17.55s-13.45.25-20.18.29-13.45.17-20.17.45-13.43.82-20.15,1.19c-13.43.61-26.88.84-40.35.62Z"/><path class="cls-1" d="M35.58,138.43c.07,4.68.06,9.36.09,14l-.06,14c0,4.68-.12,9.36-.17,14l-.21,14-.9-.91c13.16-.1,26.32.11,39.49.21s26.32-.1,39.48-.42,26.32-.57,39.48-.72l19.74-.23,19.74-.1-1,1.14c-.65-4.9-1.22-9.81-1.83-14.72l-1.78-14.74L186,149.35l-1.59-14.76h.2l2.31,14.66,2.21,14.67,2.11,14.69c.7,4.9,1.43,9.79,2.07,14.7l.15,1.13h-1.15l-19.74.19H152.83c-13.16,0-26.32,0-39.48-.15s-26.33-.07-39.49.15-26.32.69-39.48.78h-.92v-.92l.35-14c.14-4.68.23-9.35.41-14l.51-14c.22-4.67.39-9.35.66-14Z"/><path class="cls-1" d="M46.89,143.35l9.81-.24c3.27-.06,6.54-.15,9.81-.18h0a24.85,24.85,0,0,1,6.67.31c1.06.17,2.13.26,3.22.36a16.69,16.69,0,0,0,3.16.05,15.4,15.4,0,0,0,3.07-.65,14.39,14.39,0,0,1,3.38-.62c2.24,0,4.36-.11,6.54-.29s4.32-.39,6.48-.68c1.07-.15,2.15-.3,3.21-.48s2.16-.41,3.27-.55a105.78,105.78,0,0,1,13.2-.61c4.38,0,8.75-.16,13.17.12,1.11.07,2.22.17,3.32.33s2.15.31,3.22.4a43.66,43.66,0,0,0,6.47.09c1.08-.06,2.17-.13,3.25-.24s2.15-.3,3.27-.38a48.75,48.75,0,0,1,6.62,0c2.22.13,4.38.63,6.53.89s4.33.46,6.5.56h.31v18l.08,8.84.11,8.84v.55H171l-3.92,0a19.1,19.1,0,0,0-2,.07c-.69.07-1.33.06-2,.07a35.57,35.57,0,0,1-4-.16c-1.35-.13-2.65-.38-3.92-.52s-2.57-.22-3.88-.29a13.2,13.2,0,0,0-3.71.22c-.6.13-1.17.32-1.82.52a17.16,17.16,0,0,1-2,.49,23,23,0,0,1-4.06.34c-1.32,0-2.65-.08-4-.12s-2.66-.1-4-.22a16.26,16.26,0,0,0-1.85-.08,10.8,10.8,0,0,0-1.8.22,11.8,11.8,0,0,1-4.23.18c-1.36-.18-2.63-.39-4-.65-.65-.13-1.35-.31-1.92-.43a10.64,10.64,0,0,0-1.78-.18,25.09,25.09,0,0,0-3.77.29c-1.27.15-2.49.41-3.79.69s-2.63.42-4,.62l-3.94.55a73.73,73.73,0,0,1-8,.65,29.19,29.19,0,0,1-4.07-.27c-1.3-.17-2.56-.31-3.86-.4s-2.6-.11-3.9-.17-2.6-.14-3.91-.11l-31.5.14h-.72v-.69l.24-16.09c0-1.33.11-2.66,0-4a38.23,38.23,0,0,0-.45-4,14.75,14.75,0,0,1,1.24-7.94l.19.07A14.28,14.28,0,0,0,45,154.4c.24,1.3.49,2.64.62,4s.11,2.71.16,4.06L46,178.53l-.71-.69,31.56-.76c1.31,0,2.64.07,4,.09s2.64.07,4,.16,2.67.23,4,.4a25.29,25.29,0,0,0,3.79.23,71.71,71.71,0,0,0,7.74-.66l3.85-.55c1.29-.21,2.58-.33,3.85-.62a31.82,31.82,0,0,1,4-.68,26.59,26.59,0,0,1,4.09-.26,13.87,13.87,0,0,1,2.13.23c.71.17,1.29.33,1.92.46,1.23.25,2.56.48,3.8.66a10,10,0,0,0,3.61-.12,12.5,12.5,0,0,1,2.11-.23,16.1,16.1,0,0,1,2.08.1c1.3.14,2.6.21,3.89.26s2.59.14,3.89.16a22.85,22.85,0,0,0,3.79-.25,14.47,14.47,0,0,0,1.82-.41,19.57,19.57,0,0,1,2-.52,14.66,14.66,0,0,1,4.13-.19c1.32.1,2.65.19,4,.37s2.62.45,3.89.61a35.39,35.39,0,0,0,3.85.26H171l-.56.56.11-8.84.09-8.84V141.77l.3.32q-3.3-.1-6.57-.49c-2.2-.24-4.33-.71-6.49-.81a42.49,42.49,0,0,0-6.48.17c-1.07.11-2.13.33-3.24.47s-2.19.25-3.29.34a46.12,46.12,0,0,1-6.65.1c-1.1-.06-2.22-.18-3.3-.32s-2.13-.19-3.21-.23c-4.33-.11-8.7,0-13.07.09a125.43,125.43,0,0,0-13,.62c-1.06.13-2.1.33-3.21.51s-2.19.31-3.28.45c-2.19.27-4.39.47-6.58.62s-4.44.2-6.58.22a12.66,12.66,0,0,0-3.06.53,16,16,0,0,1-3.36.6,18.29,18.29,0,0,1-3.39-.13c-1.09-.13-2.19-.27-3.29-.47a24.06,24.06,0,0,0-6.39-.47h0c-3.27,0-6.54-.12-9.81-.18l-9.81-.24Z"/></g></g></svg>